<?xml version="1.0" encoding="UTF-8"?>
<svg xmlns="http://www.w3.org/2000/svg" width="1024" height="1024" viewBox="0 0 1024 1024">
  <defs>
    <clipPath id="half-left">
      <rect x="0" y="0" width="512" height="1024"/>
    </clipPath>
    <clipPath id="half-right">
      <rect x="512" y="0" width="512" height="1024"/>
    </clipPath>
    <!-- Outer shield shape path reused for both halves -->
    <path id="shield" d="
      M512,80
      C460,160 400,210 310,300
      C210,400 160,520 160,760
      L160,820
      L864,820
      L864,760
      C864,520 814,400 714,300
      C624,210 564,160 512,80
      Z" />
    <!-- White flame shape -->
    <path id="flame" d="
      M512,330
      C430,375 380,470 382,560
      C384,640 430,700 500,742
      C530,760 560,770 580,772
      C590,774 598,768 598,758
      C598,740 580,720 560,700
      C520,662 502,620 506,586
      C509,560 526,544 552,536
      C604,520 650,480 664,432
      C678,384 662,338 628,308
      C606,289 568,300 512,330 Z" />
    <!-- Golden swirl inside flame -->
    <path id="swirl" d="
      M512,770
      C476,706 480,648 520,606
      C548,578 582,572 610,586
      C634,598 650,622 652,648
      C656,692 624,728 580,732
      C560,734 542,728 528,714
      C520,706 520,694 528,686
      C536,678 548,678 556,686
      C564,694 576,698 588,696
      C608,692 620,674 616,654
      C612,636 592,624 572,628
      C544,634 532,664 548,712
      L560,748
      L560,820
      L512,820 Z" />
  </defs>

  <!-- Left blue half of shield -->
  <use href="#shield" clip-path="url(#half-left)" fill="#0E4A8A"/>
  <!-- Right golden half of shield -->
  <use href="#shield" clip-path="url(#half-right)" fill="#A8791B"/>

  <!-- White flame -->
  <use href="#flame" fill="#FFFFFF"/>
  <!-- Golden swirl overlay -->
  <use href="#swirl" fill="#A8791B"/>
</svg>
